<svg width="24" height="24" viewBox="0 0 24 24" fill="none" xmlns="http://www.w3.org/2000/svg">
<g id="940994_facebook_fb icon_icon 1" clip-path="url(#clip0_23_23)">
<path id="f_1_" d="M14.4 12.48L14.88 10.08H12.48V8.16005C12.48 7.44005 12.864 7.20005 13.92 7.20005H14.88V4.80005C14.88 4.80005 13.92 4.80005 12.96 4.80005C10.992 4.80005 9.60001 5.95205 9.60001 8.16005V10.08H7.20001V12.48H9.60001V19.2H12.48V12.48H14.4Z" fill="#0D7C7C"/>
<path id="Vector" d="M12 0.47998C5.61601 0.47998 0.480011 5.61598 0.480011 12C0.480011 18.384 5.61601 23.52 12 23.52C18.384 23.52 23.52 18.384 23.52 12C23.52 5.61598 18.384 0.47998 12 0.47998ZM12 21.12C6.96001 21.12 2.88001 17.04 2.88001 12C2.88001 6.95998 6.96001 2.87998 12 2.87998C17.04 2.87998 21.12 6.95998 21.12 12C21.12 17.04 17.04 21.12 12 21.12Z" fill="#0D7C7C"/>
</g>
<defs>
<clipPath id="clip0_23_23">
<rect width="24" height="24" fill="white"/>
</clipPath>
</defs>
</svg>
