<svg width="24" height="24" viewBox="0 0 24 24" fill="none" xmlns="http://www.w3.org/2000/svg">
<g id="940994_facebook_fb icon_icon 1" clip-path="url(#clip0_24_205)">
<path id="f_1_" d="M14.4 12.4798L14.88 10.0798H12.48V8.1598C12.48 7.4398 12.864 7.1998 13.92 7.1998H14.88V4.7998C14.88 4.7998 13.92 4.7998 12.96 4.7998C10.992 4.7998 9.6 5.9518 9.6 8.1598V10.0798H7.2V12.4798H9.6V19.1998H12.48V12.4798H14.4Z" fill="white" fill-opacity="0.59"/>
<path id="Vector" d="M12 0.47998C5.616 0.47998 0.48 5.61598 0.48 12C0.48 18.384 5.616 23.52 12 23.52C18.384 23.52 23.52 18.384 23.52 12C23.52 5.61598 18.384 0.47998 12 0.47998ZM12 21.12C6.96 21.12 2.88 17.04 2.88 12C2.88 6.95998 6.96 2.87998 12 2.87998C17.04 2.87998 21.12 6.95998 21.12 12C21.12 17.04 17.04 21.12 12 21.12Z" fill="white" fill-opacity="0.59"/>
</g>
<defs>
<clipPath id="clip0_24_205">
<rect width="24" height="24" fill="white"/>
</clipPath>
</defs>
</svg>
