<svg width="24" height="24" viewBox="0 0 24 24" fill="none" xmlns="http://www.w3.org/2000/svg">
<g id="291716_github_logo_social network_social_icon 1" clip-path="url(#clip0_24_202)">
<g id="Group">
<path id="Vector" fill-rule="evenodd" clip-rule="evenodd" d="M13.8812 16.6019C16.2196 16.3258 18.7066 15.4755 18.7066 11.4367C18.7066 10.2887 18.3024 9.35316 17.644 8.6303C17.7502 8.3542 18.09 7.31245 17.5158 5.86716C17.5158 5.86716 16.6656 5.59069 14.6677 6.92977C13.8175 6.69619 12.8823 6.54712 12.0108 6.54712C11.1177 6.54712 10.1821 6.69619 9.35311 6.92977C7.33364 5.59069 6.48342 5.86716 6.48342 5.86716C5.90963 7.31245 6.24984 8.3542 6.35602 8.6303C5.69691 9.35311 5.29303 10.2887 5.29303 11.4367C5.29303 15.4755 7.78008 16.3258 10.1184 16.6019C9.82106 16.8575 9.54464 17.346 9.43842 18.0263C8.84302 18.2812 7.29117 18.7703 6.35602 17.1548C6.35602 17.1548 5.80312 16.1559 4.7617 16.0922C4.7617 16.0922 3.71995 16.071 4.67672 16.7293C4.67672 16.7293 5.37797 17.0486 5.84592 18.2599C5.84592 18.2599 6.48342 20.2797 9.41681 19.6418V21.4485C9.41681 21.7253 9.20447 22.0439 8.67314 21.959C4.50652 20.577 1.50938 16.6231 1.50938 11.9892C1.50938 6.18577 6.207 1.48819 12.0108 1.48819C17.7927 1.48819 22.5119 6.18581 22.4906 11.9892C22.4906 16.6231 19.4932 20.5558 15.3268 21.959C14.7952 22.0652 14.5828 21.7466 14.5828 21.4485V18.5367C14.5828 17.5583 14.2635 16.9212 13.8812 16.6019ZM24 12.0108C24 5.37797 18.6217 0 12.0108 0C5.37797 0 0 5.37797 0 12.0108C0 18.6217 5.37797 24 12.0108 24C18.6217 24 24 18.6217 24 12.0108Z" fill="white" fill-opacity="0.59"/>
</g>
</g>
<defs>
<clipPath id="clip0_24_202">
<rect width="24" height="24" fill="white"/>
</clipPath>
</defs>
</svg>
