<?xml version="1.0" standalone="no"?>
<!DOCTYPE svg PUBLIC "-//W3C//DTD SVG 20010904//EN"
 "http://www.w3.org/TR/2001/REC-SVG-20010904/DTD/svg10.dtd">
<svg version="1.0" xmlns="http://www.w3.org/2000/svg"
 width="766.000000pt" height="326.000000pt" viewBox="0 0 766.000000 326.000000"
 preserveAspectRatio="xMidYMid meet">

<g transform="translate(0.000000,326.000000) scale(0.100000,-0.100000)"
fill="#000000" stroke="none">
<path d="M4397 2822 c6 -4 13 -21 16 -37 l4 -30 2 32 c0 17 7 34 14 36 6 3 -1
6 -18 6 -16 0 -25 -3 -18 -7z"/>
<path d="M4562 2795 c0 -22 3 -30 5 -17 2 12 8 22 13 22 5 0 11 -10 13 -22 4
-20 4 -19 6 5 1 17 -4 27 -13 27 -8 0 -17 6 -19 13 -3 6 -5 -6 -5 -28z"/>
<path d="M5110 2821 c0 -5 -9 -11 -20 -14 -20 -5 -27 -31 -11 -41 5 -4 7 3 4
14 -4 14 0 20 12 20 12 0 16 -6 12 -20 -3 -11 -1 -20 4 -20 5 0 9 16 9 35 0
19 -2 35 -5 35 -3 0 -5 -4 -5 -9z"/>
<path d="M5470 2792 c0 -18 4 -32 8 -32 9 0 8 47 -1 57 -4 3 -7 -8 -7 -25z"/>
<path d="M4444 2795 c-4 -9 -1 -22 6 -28 10 -9 11 -9 6 1 -5 8 0 12 14 12 13
0 20 5 18 13 -7 19 -37 20 -44 2z m33 -1 c-3 -3 -12 -4 -19 -1 -8 3 -5 6 6 6
11 1 17 -2 13 -5z"/>
<path d="M4503 2794 c-3 -8 -1 -20 5 -26 8 -8 9 -5 6 10 -4 14 0 22 13 25 17
4 17 5 0 6 -10 0 -20 -6 -24 -15z"/>
<path d="M4621 2783 c2 -24 2 -25 6 -5 2 12 8 22 13 22 5 0 11 -10 13 -22 4
-20 4 -19 6 5 1 21 -4 27 -19 27 -15 0 -20 -6 -19 -27z"/>
<path d="M4674 2795 c-8 -20 4 -35 27 -35 14 0 19 7 19 25 0 18 -5 25 -20 25
-11 0 -23 -7 -26 -15z m36 -10 c0 -8 -7 -15 -15 -15 -8 0 -15 7 -15 15 0 8 7
15 15 15 8 0 15 -7 15 -15z"/>
<path d="M4760 2785 c0 -14 4 -25 9 -25 5 0 7 9 4 20 -3 11 -1 20 4 20 5 0 19
-9 31 -20 12 -11 26 -20 32 -20 5 0 10 -6 11 -12 1 -7 4 -2 8 12 10 33 3 50
-19 50 -10 0 -21 -6 -24 -12 -5 -10 -7 -10 -12 0 -3 6 -14 12 -25 12 -14 0
-19 -7 -19 -25z m95 6 c7 -12 -12 -24 -25 -16 -11 7 -4 25 10 25 5 0 11 -4 15
-9z"/>
<path d="M4885 2790 c2 -14 5 -32 5 -40 0 -11 3 -10 11 4 7 12 8 21 2 25 -6 3
-13 13 -17 21 -3 8 -4 4 -1 -10z"/>
<path d="M4975 2800 c17 -7 17 -9 3 -9 -11 -1 -18 -8 -17 -18 0 -11 3 -13 6
-5 2 6 9 12 14 12 6 0 7 -4 4 -10 -3 -5 -1 -10 4 -10 6 0 11 11 11 25 0 19 -5
25 -22 24 -22 0 -22 -1 -3 -9z"/>
<path d="M5011 2783 c0 -27 1 -27 9 -5 5 12 14 22 19 22 5 0 12 -10 14 -22 4
-20 4 -19 6 5 1 23 -3 27 -24 27 -21 0 -25 -5 -24 -27z"/>
<path d="M5162 2785 c0 -16 2 -22 5 -12 2 9 2 23 0 30 -3 6 -5 -1 -5 -18z"/>
<path d="M5181 2783 c2 -23 2 -24 6 -5 5 27 30 29 36 2 4 -17 4 -16 3 2 -1 16
-8 24 -23 26 -20 3 -23 -1 -22 -25z"/>
<path d="M5241 2783 c2 -23 2 -24 6 -5 5 27 30 29 36 2 4 -17 4 -16 3 2 -1 16
-8 24 -23 26 -20 3 -23 -1 -22 -25z"/>
<path d="M5307 2803 c-10 -10 -8 -43 2 -43 5 0 7 9 4 20 -4 14 0 20 12 20 13
0 16 -6 12 -21 -4 -16 -3 -19 5 -11 6 6 8 18 5 26 -7 16 -28 21 -40 9z"/>
<path d="M5361 2800 c-1 -17 16 -47 22 -40 3 3 8 16 11 30 6 23 6 23 -5 5 -12
-19 -12 -19 -20 0 -5 13 -8 15 -8 5z"/>
<path d="M5424 2801 c18 -7 18 -8 3 -14 -9 -3 -17 -12 -17 -19 0 -9 3 -9 10 2
9 13 11 13 20 0 8 -12 10 -9 10 13 0 22 -4 27 -22 26 -21 0 -21 -1 -4 -8z"/>
<path d="M5502 2785 c0 -16 2 -22 5 -12 2 9 2 23 0 30 -3 6 -5 -1 -5 -18z"/>
<path d="M5527 2797 c-3 -8 -1 -20 4 -28 8 -11 9 -10 7 5 -2 10 3 21 11 24 10
3 12 -1 8 -17 -3 -11 -1 -21 4 -21 5 0 9 11 9 25 0 18 -5 25 -19 25 -10 0 -21
-6 -24 -13z"/>
<path d="M5591 2783 c2 -24 2 -25 6 -5 2 12 8 22 13 22 5 0 11 -10 13 -22 4
-20 4 -19 6 5 1 21 -4 27 -19 27 -15 0 -20 -6 -19 -27z"/>
<path d="M1961 2713 c1 -33 2 -35 8 -13 l7 25 7 -25 7 -25 14 25 14 24 5 -24
c3 -17 5 -12 5 15 1 37 0 39 -13 21 -8 -11 -15 -25 -15 -30 -1 -6 -8 1 -16 17
-20 36 -24 34 -23 -10z"/>
<path d="M2142 2715 c0 -22 2 -34 5 -27 3 9 9 10 18 2 9 -8 11 -5 7 15 -2 14
-8 23 -12 20 -5 -3 -11 3 -13 12 -3 10 -5 0 -5 -22z"/>
<path d="M2250 2722 c0 -17 3 -33 8 -35 9 -6 8 50 -1 60 -4 3 -7 -8 -7 -25z"/>
<path d="M2450 2715 c0 -34 2 -36 28 -33 23 3 27 8 27 33 0 25 -4 30 -27 33
-26 3 -28 1 -28 -33z m48 3 c-5 -34 -38 -37 -38 -4 0 20 5 26 21 26 15 0 20
-5 17 -22z"/>
<path d="M2740 2722 c0 -17 3 -33 8 -35 9 -6 8 50 -1 60 -4 3 -7 -8 -7 -25z"/>
<path d="M2980 2722 c0 -17 3 -33 8 -35 9 -6 8 50 -1 60 -4 3 -7 -8 -7 -25z"/>
<path d="M2113 2733 c-7 -2 -12 -17 -12 -31 1 -21 2 -23 6 -7 3 11 10 26 15
33 11 13 10 13 -9 5z"/>
<path d="M2210 2736 c0 -2 8 -10 18 -17 15 -13 16 -12 3 4 -13 16 -21 21 -21
13z"/>
<path d="M2339 2708 c4 -28 6 -29 9 -9 2 13 0 27 -5 32 -6 6 -7 -3 -4 -23z"/>
<path d="M2371 2726 c-14 -17 -4 -46 18 -47 12 0 12 -2 -4 -9 -19 -8 -19 -9 3
-9 19 -1 22 4 21 37 -1 23 -3 28 -6 15 -5 -24 -18 -30 -28 -13 -4 6 -1 17 5
25 7 8 10 15 7 15 -2 0 -10 -6 -16 -14z"/>
<path d="M2530 2725 c-16 -19 -5 -45 17 -44 15 0 15 2 3 7 -14 6 -16 15 -11
38 0 4 8 1 16 -6 9 -7 15 -8 15 -2 0 17 -28 22 -40 7z"/>
<path d="M2580 2697 c0 -23 4 -37 8 -31 4 6 15 13 25 17 16 6 25 46 10 48 -5
0 -16 2 -25 4 -15 3 -18 -4 -18 -38z m40 7 c0 -8 -7 -14 -15 -14 -15 0 -21 21
-9 33 10 9 24 -2 24 -19z"/>
<path d="M2650 2728 c-12 -8 -12 -9 3 -4 12 4 17 0 17 -14 0 -11 -5 -20 -11
-20 -5 0 -7 5 -4 10 3 6 1 10 -4 10 -6 0 -11 -7 -11 -15 0 -8 9 -15 20 -15 15
0 20 7 20 24 0 30 -11 38 -30 24z"/>
<path d="M2783 2733 c-7 -3 -13 -17 -12 -31 1 -25 2 -23 15 17 3 11 7 11 19 1
9 -7 15 -8 15 -2 0 12 -21 21 -37 15z"/>
<path d="M2839 2708 c4 -28 6 -29 9 -9 2 13 0 27 -5 32 -6 6 -7 -3 -4 -23z"/>
<path d="M2872 2731 c-18 -11 -11 -45 8 -47 9 0 10 1 3 3 -14 5 -17 25 -6 36
3 4 13 1 22 -6 14 -11 14 -10 2 6 -7 9 -14 17 -15 17 0 0 -7 -4 -14 -9z"/>
<path d="M2080 2710 c0 -11 -7 -20 -16 -20 -9 0 -12 5 -8 12 4 7 3 8 -5 4 -16
-10 -4 -26 20 -26 14 0 19 7 19 25 0 14 -2 25 -5 25 -3 0 -5 -9 -5 -20z"/>
<path d="M2194 2705 c1 -12 9 -21 21 -22 14 -1 15 0 3 3 -9 3 -19 13 -21 22
-3 12 -4 11 -3 -3z"/>
<path d="M2312 2705 c0 -16 2 -22 5 -12 2 9 2 23 0 30 -3 6 -5 -1 -5 -18z"/>
<path d="M2702 2705 c0 -16 2 -22 5 -12 2 9 2 23 0 30 -3 6 -5 -1 -5 -18z"/>
<path d="M2922 2705 c0 -16 2 -22 5 -12 2 9 2 23 0 30 -3 6 -5 -1 -5 -18z"/>
<path d="M4750 2640 c0 -44 16 -52 44 -24 28 27 12 64 -26 64 -14 0 -18 -8
-18 -40z m46 15 c6 -16 -12 -45 -27 -45 -5 0 -9 14 -9 30 0 32 26 43 36 15z"/>
<path d="M5038 2665 c-6 -7 2 -54 11 -59 7 -5 7 52 -1 59 -2 3 -7 3 -10 0z"/>
<path d="M5278 2665 c-6 -7 2 -54 11 -59 7 -5 7 52 -1 59 -2 3 -7 3 -10 0z"/>
<path d="M4827 2653 c-11 -10 -8 -41 4 -49 6 -3 16 -1 22 5 9 9 8 11 -5 6 -11
-4 -18 -2 -18 4 0 6 9 11 20 11 13 0 18 5 14 15 -6 16 -26 20 -37 8z"/>
<path d="M4882 2623 c1 -37 1 -37 5 -5 4 32 16 41 28 22 4 -6 1 -19 -6 -28
-12 -16 -12 -16 4 -1 21 19 13 49 -14 49 -16 0 -19 -7 -17 -37z"/>
<path d="M4950 2652 c8 -4 17 -16 18 -27 6 -33 14 -33 10 0 -2 21 -9 31 -23
32 -15 2 -16 1 -5 -5z"/>
<path d="M4991 2633 c0 -16 3 -22 6 -13 3 8 10 21 16 28 7 8 5 12 -7 12 -11 0
-16 -8 -15 -27z"/>
<path d="M5071 2628 c2 -31 2 -31 6 -5 5 33 20 36 26 5 l4 -23 2 23 c0 12 5
22 10 22 5 0 12 -10 14 -22 4 -20 4 -19 6 5 1 25 -2 27 -34 27 -33 0 -35 -2
-34 -32z"/>
<path d="M5167 2653 c-11 -10 -8 -41 4 -49 6 -3 16 -1 22 5 9 9 8 11 -5 6 -11
-4 -18 -2 -18 4 0 6 7 11 15 11 8 0 15 7 15 15 0 15 -21 21 -33 8z"/>
<path d="M5220 2651 c0 -6 6 -8 14 -5 10 4 16 -3 19 -20 4 -26 4 -26 3 1 -1
18 -7 29 -18 31 -10 2 -18 -1 -18 -7z"/>
<path d="M4940 2615 c0 -8 4 -15 10 -15 5 0 7 7 4 15 -4 8 -8 15 -10 15 -2 0
-4 -7 -4 -15z"/>
<path d="M573 1600 c-1 -25 1 -37 4 -27 2 9 13 17 23 17 10 0 21 -8 23 -17 3
-10 5 0 5 22 0 22 -2 32 -5 23 -7 -26 -41 -22 -46 5 -2 12 -4 2 -4 -23z"/>
<path d="M3085 1626 c-20 -15 -17 -45 7 -60 13 -8 21 -7 29 1 9 9 7 11 -9 6
-26 -7 -40 20 -22 42 10 12 16 13 26 4 9 -7 14 -8 14 -1 0 16 -27 21 -45 8z"/>
<path d="M3293 1628 c-5 -7 -6 -26 -2 -43 6 -28 7 -28 9 -5 1 14 3 33 5 43 4
20 1 21 -12 5z"/>
<path d="M3835 1624 c-19 -19 -16 -43 7 -57 20 -13 48 6 48 34 0 28 -35 43
-55 23z m43 -28 c-2 -11 -10 -22 -19 -24 -21 -4 -33 26 -18 44 15 18 41 5 37
-20z"/>
<path d="M3907 1633 c-4 -3 -7 -22 -6 -42 l1 -36 7 31 c4 17 11 36 15 42 8 13
-6 17 -17 5z"/>
<path d="M3943 1628 c-5 -7 -6 -26 -2 -43 6 -28 7 -28 9 -5 1 14 3 33 5 43 4
20 1 21 -12 5z"/>
<path d="M4174 1616 c-3 -14 -2 -31 3 -40 6 -11 9 -3 9 24 2 46 -3 51 -12 16z"/>
<path d="M4216 1624 c-19 -18 -19 -20 -6 -45 11 -20 35 -25 44 -10 4 5 -2 7
-13 4 -24 -6 -34 20 -16 43 11 16 15 17 31 4 17 -14 18 -14 5 3 -17 21 -25 21
-45 1z"/>
<path d="M4350 1626 c-6 -8 -10 -25 -8 -38 2 -17 10 -23 28 -23 18 0 26 6 28
23 3 22 -13 52 -28 52 -4 0 -13 -7 -20 -14z m35 -26 c0 -27 -22 -39 -31 -16
-8 22 3 49 19 43 6 -2 12 -14 12 -27z"/>
<path d="M4423 1600 c0 -25 2 -35 4 -22 2 12 2 32 0 45 -2 12 -4 2 -4 -23z"/>
<path d="M6140 1626 c-6 -8 -10 -25 -8 -38 2 -17 10 -23 28 -23 21 0 26 5 28
33 2 17 -1 32 -5 32 -5 0 -9 -12 -8 -27 0 -14 -6 -28 -12 -30 -19 -7 -28 26
-14 48 13 22 8 25 -9 5z"/>
<path d="M680 1615 c0 -11 -5 -15 -14 -12 -8 3 -16 -2 -19 -14 -4 -16 -3 -18
9 -8 11 9 15 8 20 -5 3 -9 11 -16 17 -16 8 0 7 4 -1 12 -7 7 -8 17 -2 29 7 11
7 20 0 24 -5 3 -10 -1 -10 -10z"/>
<path d="M730 1595 c0 -36 18 -46 48 -26 18 11 12 53 -8 58 -12 4 -12 3 -2 -5
19 -13 11 -46 -12 -50 -16 -3 -18 1 -14 27 2 17 1 31 -4 31 -4 0 -8 -16 -8
-35z"/>
<path d="M1020 1602 c0 -17 3 -33 8 -35 9 -6 8 50 -1 60 -4 3 -7 -8 -7 -25z"/>
<path d="M1260 1602 c0 -17 3 -33 8 -35 9 -6 8 50 -1 60 -4 3 -7 -8 -7 -25z"/>
<path d="M3151 1593 c2 -30 3 -32 6 -10 2 15 8 27 13 27 5 0 11 -12 13 -27 l4
-28 2 27 c0 18 -6 31 -19 38 -18 10 -20 8 -19 -27z"/>
<path d="M3351 1598 c-1 -33 2 -38 22 -37 16 1 18 2 5 6 -10 2 -18 8 -18 13 0
5 8 11 18 13 15 4 15 5 0 6 -9 0 -19 9 -21 19 -3 9 -5 0 -6 -20z"/>
<path d="M3630 1602 c0 -17 3 -33 8 -35 9 -6 8 50 -1 60 -4 3 -7 -8 -7 -25z"/>
<path d="M4281 1598 c-1 -35 1 -38 27 -37 23 2 24 2 5 6 -27 5 -30 20 -5 26
15 4 15 5 0 6 -9 0 -19 9 -21 19 -3 9 -5 0 -6 -20z"/>
<path d="M6418 1625 c-6 -7 2 -54 11 -59 7 -5 7 52 -1 59 -2 3 -7 3 -10 0z"/>
<path d="M6622 1598 c-2 -31 1 -38 17 -38 38 0 56 57 21 68 -13 5 -13 3 -1
-11 16 -20 8 -47 -13 -47 -9 0 -16 12 -19 33 -4 31 -4 31 -5 -5z"/>
<path d="M6908 1625 c-6 -7 3 -65 11 -65 7 0 7 58 -1 65 -2 3 -7 3 -10 0z"/>
<path d="M7148 1625 c-6 -7 3 -65 11 -65 7 0 7 58 -1 65 -2 3 -7 3 -10 0z"/>
<path d="M812 1611 c-18 -11 -11 -45 8 -47 9 0 10 1 3 3 -7 3 -13 11 -13 18 0
21 21 30 32 14 8 -12 9 -12 6 0 -5 19 -19 23 -36 12z"/>
<path d="M861 1576 l2 -41 6 34 c7 38 31 55 31 23 0 -11 -5 -23 -10 -25 -6 -3
-5 -4 2 -3 7 2 13 14 13 27 0 18 -6 24 -22 25 -21 1 -23 -3 -22 -40z"/>
<path d="M925 1611 c-3 -7 0 -8 9 -5 11 4 16 0 16 -15 0 -12 -5 -21 -11 -21
-5 0 -7 5 -4 10 3 6 1 10 -4 10 -6 0 -11 -7 -11 -15 0 -8 9 -15 21 -15 16 0
20 5 17 27 -3 28 -22 41 -33 24z"/>
<path d="M984 1606 c-3 -8 -4 -23 -2 -33 3 -11 6 -6 9 15 6 34 2 42 -7 18z"/>
<path d="M1063 1613 c-7 -3 -13 -17 -12 -31 1 -26 1 -26 7 -4 8 28 24 30 33 5
7 -16 8 -15 8 5 1 30 19 28 24 -3 4 -23 4 -23 3 2 -1 22 -6 28 -26 29 -14 1
-31 0 -37 -3z"/>
<path d="M1144 1605 c-9 -23 3 -45 23 -44 17 1 17 2 1 6 -10 2 -18 13 -18 24
0 22 10 24 30 7 12 -11 12 -10 1 5 -16 21 -30 22 -37 2z"/>
<path d="M1202 1590 c0 -19 2 -27 5 -17 2 9 2 25 0 35 -3 9 -5 1 -5 -18z"/>
<path d="M1228 1593 c5 -21 7 -23 10 -9 2 10 0 22 -6 28 -6 6 -7 0 -4 -19z"/>
<path d="M3234 1605 c-9 -23 3 -45 23 -44 17 1 17 2 1 6 -19 5 -25 43 -8 43 6
0 10 -4 10 -10 0 -5 5 -10 11 -10 8 0 8 5 -1 15 -7 8 -17 15 -22 15 -5 0 -11
-7 -14 -15z"/>
<path d="M3435 1610 c-4 -6 -10 -8 -14 -6 -3 3 -7 -4 -7 -14 0 -11 2 -17 5
-15 2 3 9 1 15 -4 8 -6 11 0 11 20 0 32 -1 34 -10 19z"/>
<path d="M3464 1606 c-3 -9 -4 -23 0 -31 6 -16 36 -21 36 -5 0 5 -7 7 -15 4
-10 -4 -15 0 -15 15 0 22 15 29 23 11 3 -6 4 -5 3 2 -4 19 -25 21 -32 4z"/>
<path d="M3521 1606 c-6 -7 -9 -21 -5 -30 7 -17 29 -22 38 -7 3 5 -2 8 -12 7
-9 0 -17 6 -17 14 0 8 8 14 17 14 10 -1 15 2 12 7 -8 13 -20 11 -33 -5z"/>
<path d="M3574 1590 c1 -18 7 -26 24 -28 18 -3 22 1 21 25 0 27 -1 27 -9 6 -5
-13 -14 -23 -19 -23 -5 0 -12 10 -14 23 -3 19 -4 19 -3 -3z"/>
<path d="M3720 1607 c0 -9 -4 -17 -10 -17 -5 0 -10 5 -10 12 0 6 -2 9 -5 7 -6
-7 6 -49 15 -49 10 0 23 50 15 58 -3 3 -5 -2 -5 -11z"/>
<path d="M3744 1606 c-9 -23 3 -46 23 -45 17 1 17 2 1 6 -18 4 -24 24 -11 36
3 4 13 1 21 -6 13 -10 14 -9 10 3 -7 21 -37 25 -44 6z"/>
<path d="M3972 1590 c0 -19 2 -27 5 -17 2 9 2 25 0 35 -3 9 -5 1 -5 -18z"/>
<path d="M4001 1606 c-6 -7 -9 -21 -5 -30 7 -17 29 -22 38 -7 3 5 -2 8 -12 7
-9 0 -17 6 -17 14 0 8 8 14 17 14 10 -1 15 2 12 7 -8 13 -20 11 -33 -5z"/>
<path d="M4054 1605 c-9 -23 3 -45 23 -44 17 1 17 2 1 6 -19 5 -25 43 -8 43 6
0 10 -4 10 -10 0 -5 5 -10 11 -10 8 0 8 5 -1 15 -7 8 -17 15 -22 15 -5 0 -11
-7 -14 -15z"/>
<path d="M4112 1590 c0 -19 2 -27 5 -17 2 9 2 25 0 35 -3 9 -5 1 -5 -18z"/>
<path d="M6217 1613 c-4 -3 -7 -17 -7 -30 0 -16 6 -23 20 -23 11 0 20 4 20 10
0 5 -7 7 -15 4 -10 -4 -15 0 -15 15 0 28 14 26 39 -5 12 -16 27 -24 38 -21 17
4 17 5 1 6 -11 1 -18 9 -18 21 0 22 15 27 23 8 4 -10 6 -10 6 -1 1 19 -18 26
-35 12 -11 -9 -18 -9 -26 -1 -14 14 -22 15 -31 5z"/>
<path d="M6332 1611 c-8 -5 -12 -16 -10 -25 2 -12 6 -10 15 9 6 14 10 25 10
25 -1 0 -8 -4 -15 -9z"/>
<path d="M6365 1611 c-3 -7 0 -8 9 -5 11 4 16 0 16 -15 0 -12 -5 -21 -11 -21
-5 0 -7 5 -4 10 3 6 1 10 -4 10 -6 0 -11 -7 -11 -15 0 -8 9 -15 21 -15 16 0
20 5 17 27 -3 28 -22 41 -33 24z"/>
<path d="M6452 1590 c0 -19 2 -27 5 -17 2 9 2 25 0 35 -3 9 -5 1 -5 -18z"/>
<path d="M6481 1607 c-15 -19 -3 -49 18 -45 9 2 16 13 16 27 0 29 -17 37 -34
18z m29 -17 c0 -21 -15 -27 -25 -10 -7 12 2 30 16 30 5 0 9 -9 9 -20z"/>
<path d="M6543 1613 c-7 -2 -13 -14 -12 -26 0 -22 0 -22 9 1 13 30 28 28 33
-5 5 -28 5 -28 3 1 -1 30 -11 38 -33 29z"/>
<path d="M6694 1605 c-9 -23 3 -45 23 -44 17 1 17 2 1 6 -19 5 -25 43 -8 43 6
0 10 -4 10 -10 0 -5 5 -10 11 -10 8 0 8 5 -1 15 -7 8 -17 15 -22 15 -5 0 -11
-7 -14 -15z"/>
<path d="M6779 1608 c7 -9 10 -22 6 -28 -10 -17 -23 -11 -28 13 -2 12 -5 4 -5
-18 0 -22 2 -34 5 -27 2 6 11 12 18 12 22 0 27 32 8 49 -16 15 -16 15 -4 -1z"/>
<path d="M6815 1611 c-3 -7 0 -8 9 -5 11 4 16 0 16 -15 0 -23 -15 -29 -23 -8
-3 7 -6 5 -6 -5 -1 -12 6 -18 20 -18 16 0 20 5 17 27 -3 28 -22 41 -33 24z"/>
<path d="M6873 1613 c-7 -2 -12 -17 -12 -31 1 -21 2 -23 6 -7 3 11 10 26 15
33 11 13 10 13 -9 5z"/>
<path d="M6942 1590 c0 -19 2 -27 5 -17 2 9 2 25 0 35 -3 9 -5 1 -5 -18z"/>
<path d="M6969 1585 c2 -16 6 -23 8 -15 12 42 16 45 23 20 l8 -25 1 26 c1 22
-3 27 -22 25 -19 -1 -22 -5 -18 -31z"/>
<path d="M7034 1606 c-9 -23 3 -46 23 -45 17 1 17 2 1 6 -10 2 -18 13 -18 24
0 20 15 26 23 9 3 -6 4 -5 3 2 -4 19 -25 21 -32 4z"/>
<path d="M7094 1606 c-3 -8 -4 -21 -1 -28 3 -7 6 -3 6 10 1 31 19 28 24 -5 5
-28 5 -28 3 1 -1 32 -22 47 -32 22z"/>
<path d="M3212 1590 c0 -14 2 -19 5 -12 2 6 2 18 0 25 -3 6 -5 1 -5 -13z"/>
<path d="M3665 1597 c-4 -10 -5 -21 -1 -24 10 -10 18 4 13 24 -4 17 -4 17 -12
0z"/>
<path d="M2021 613 c1 -38 1 -38 9 -8 4 17 8 24 9 16 0 -8 3 -12 6 -9 8 7 -5
38 -16 38 -5 0 -8 -17 -8 -37z"/>
<path d="M2067 619 c-10 -18 -16 -34 -13 -36 2 -3 10 6 17 19 l13 23 7 -25 c6
-22 7 -20 8 13 1 45 -8 47 -32 6z"/>
<path d="M2262 618 c-2 -32 1 -38 18 -38 29 0 37 28 14 48 -17 16 -17 16 -5 0
7 -9 10 -22 6 -28 -12 -19 -24 -10 -28 23 -4 31 -4 31 -5 -5z"/>
<path d="M2460 614 c0 -40 12 -39 17 1 2 13 -1 26 -7 30 -6 4 -10 -8 -10 -31z"/>
<path d="M2835 630 c-11 -33 32 -68 49 -41 4 5 -3 7 -14 4 -24 -6 -37 21 -20
42 8 9 8 15 2 15 -6 0 -14 -9 -17 -20z"/>
<path d="M2875 640 c3 -5 8 -10 11 -10 2 0 4 5 4 10 0 6 -5 10 -11 10 -5 0 -7
-4 -4 -10z"/>
<path d="M3020 622 c0 -17 3 -33 8 -35 9 -6 8 50 -1 60 -4 3 -7 -8 -7 -25z"/>
<path d="M2139 628 c12 -16 11 -18 -2 -18 -8 0 -18 6 -21 13 -3 6 -4 1 -3 -13
1 -16 9 -26 22 -27 l20 -3 -20 9 c-16 8 -17 10 -3 10 25 1 30 17 10 32 -15 13
-16 12 -3 -3z"/>
<path d="M2199 608 c4 -28 6 -29 9 -9 2 13 0 27 -5 32 -6 6 -7 -3 -4 -23z"/>
<path d="M2229 608 c4 -28 6 -29 9 -9 2 13 0 27 -5 32 -6 6 -7 -3 -4 -23z"/>
<path d="M2327 634 c-4 -4 -7 -18 -7 -31 0 -17 5 -23 23 -22 21 0 21 1 2 9
-18 8 -18 9 -2 9 12 1 17 7 15 18 -3 18 -20 27 -31 17z m23 -14 c0 -5 -4 -10
-10 -10 -5 0 -10 5 -10 10 0 6 5 10 10 10 6 0 10 -4 10 -10z"/>
<path d="M2499 608 c4 -28 6 -29 9 -9 2 13 0 27 -5 32 -6 6 -7 -3 -4 -23z"/>
<path d="M2578 628 c8 -9 11 -22 7 -28 -10 -17 -23 -11 -28 13 -2 12 -5 5 -5
-18 -1 -22 2 -35 6 -29 4 6 15 13 25 17 9 3 17 13 17 20 0 8 -8 21 -17 28 -16
13 -17 12 -5 -3z"/>
<path d="M2658 615 c2 -15 0 -25 -7 -25 -7 0 -9 5 -6 10 3 6 1 10 -4 10 -6 0
-11 -7 -11 -15 0 -9 9 -15 25 -15 28 0 35 29 11 49 -11 9 -12 6 -8 -14z"/>
<path d="M2719 608 c4 -28 6 -29 9 -9 2 13 0 27 -5 32 -6 6 -7 -3 -4 -23z"/>
<path d="M2755 629 c-4 -6 -5 -12 -2 -15 2 -3 7 2 10 11 7 17 1 20 -8 4z"/>
<path d="M2974 628 c-4 -6 1 -17 10 -24 16 -12 16 -13 -1 -17 -15 -4 -16 -5
-1 -6 23 -1 33 18 14 25 -9 3 -16 10 -16 16 0 5 5 6 12 2 7 -4 8 -3 4 4 -9 15
-13 15 -22 0z"/>
<path d="M3061 630 c-19 -11 -9 -45 14 -45 13 0 21 8 23 21 3 23 -17 37 -37
24z m29 -26 c0 -8 -7 -14 -15 -14 -15 0 -21 21 -9 33 10 9 24 -2 24 -19z"/>
<path d="M3122 632 c-7 -2 -12 -16 -11 -30 l1 -27 7 25 c10 34 52 34 62 0 l7
-25 1 28 c1 15 -2 27 -6 28 -5 0 -17 2 -28 3 -12 1 -26 1 -33 -2z"/>
<path d="M3229 628 c12 -16 11 -18 -2 -18 -8 0 -18 6 -21 13 -3 6 -4 1 -3 -13
1 -16 9 -26 22 -27 l20 -3 -20 9 c-16 8 -17 10 -3 10 25 1 30 17 10 32 -15 13
-16 12 -3 -3z"/>
<path d="M2172 605 c0 -16 2 -22 5 -12 2 9 2 23 0 30 -3 6 -5 -1 -5 -18z"/>
<path d="M2410 620 c0 -6 7 -13 16 -17 13 -5 13 -7 2 -14 -10 -7 -9 -9 5 -9
23 0 22 22 -3 38 -13 7 -20 8 -20 2z"/>
<path d="M2522 605 c0 -16 2 -22 5 -12 2 9 2 23 0 30 -3 6 -5 -1 -5 -18z"/>
<path d="M2692 605 c0 -16 2 -22 5 -12 2 9 2 23 0 30 -3 6 -5 -1 -5 -18z"/>
<path d="M2911 608 c-1 -22 4 -28 19 -28 15 0 20 6 19 28 -2 23 -2 24 -6 5 -2
-13 -8 -23 -13 -23 -5 0 -11 10 -13 23 -4 19 -4 18 -6 -5z"/>
<path d="M3262 605 c0 -16 2 -22 5 -12 2 9 2 23 0 30 -3 6 -5 -1 -5 -18z"/>
<path d="M2750 588 c0 -4 9 -8 20 -8 11 0 20 4 20 8 0 4 -9 8 -20 8 -11 0 -20
-4 -20 -8z"/>
<path d="M4550 543 c0 -28 3 -34 10 -23 5 8 7 23 4 32 -3 11 2 18 18 21 20 4
20 4 -4 6 -26 1 -28 -2 -28 -36z"/>
<path d="M4944 566 c-9 -23 0 -59 14 -64 11 -3 11 0 1 16 -14 22 -5 56 14 49
6 -2 12 -16 12 -30 -1 -14 3 -23 7 -21 14 9 8 52 -8 58 -24 9 -34 7 -40 -8z"/>
<path d="M5230 542 c0 -17 4 -33 9 -36 10 -6 8 51 -3 61 -3 3 -6 -8 -6 -25z"/>
<path d="M5470 542 c0 -17 4 -33 9 -36 10 -6 8 51 -3 61 -3 3 -6 -8 -6 -25z"/>
<path d="M4612 535 c0 -16 2 -22 5 -12 2 9 2 23 0 30 -3 6 -5 -1 -5 -18z"/>
<path d="M4632 535 c0 -16 2 -22 5 -12 2 9 2 23 0 30 -3 6 -5 -1 -5 -18z"/>
<path d="M4656 553 c7 -4 14 -17 17 -28 5 -16 5 -15 4 4 -1 14 -9 26 -17 28
-10 3 -11 2 -4 -4z"/>
<path d="M4695 550 c-4 -6 1 -7 11 -3 10 4 15 2 11 -3 -3 -6 -2 -16 4 -24 6
-11 9 -8 9 13 0 27 -22 38 -35 17z"/>
<path d="M4751 533 c2 -24 2 -25 6 -5 2 12 8 22 13 22 5 0 11 -10 13 -22 4
-20 4 -19 6 5 1 21 -4 27 -19 27 -15 0 -20 -6 -19 -27z"/>
<path d="M4806 543 c-9 -22 20 -51 35 -36 8 8 6 11 -7 10 -11 -1 -19 4 -19 13
0 8 8 14 17 14 10 -1 15 2 12 7 -9 15 -31 10 -38 -8z"/>
<path d="M4864 546 c-13 -34 23 -64 42 -35 4 8 0 9 -15 4 -12 -4 -21 -2 -21 4
0 6 9 11 21 11 12 0 19 5 17 13 -7 18 -37 21 -44 3z m33 -2 c-3 -3 -12 -4 -19
-1 -8 3 -5 6 6 6 11 1 17 -2 13 -5z"/>
<path d="M5020 545 c-11 -13 -11 -19 3 -33 14 -13 19 -14 29 -3 11 10 10 11
-3 6 -10 -4 -20 -2 -24 4 -3 7 3 11 15 11 12 0 20 5 18 12 -7 19 -24 20 -38 3z"/>
<path d="M5071 516 c0 -23 3 -34 7 -26 4 8 14 15 22 15 9 0 15 9 15 25 0 19
-5 25 -22 26 -20 1 -23 -3 -22 -40z m39 14 c0 -11 -4 -20 -9 -20 -14 0 -23 18
-16 30 10 17 25 11 25 -10z"/>
<path d="M5149 552 c11 -8 10 -12 -5 -20 -24 -13 -6 -36 20 -26 23 9 17 48 -9
52 -15 2 -17 1 -6 -6z m16 -32 c-3 -5 -11 -10 -16 -10 -6 0 -7 5 -4 10 3 6 11
10 16 10 6 0 7 -4 4 -10z"/>
<path d="M5191 528 c2 -28 2 -29 6 -8 3 14 10 28 17 32 7 5 5 8 -6 8 -14 0
-18 -8 -17 -32z"/>
<path d="M5271 532 c2 -23 2 -24 6 -4 2 12 8 22 13 22 5 0 11 -10 13 -22 l4
-23 2 23 c1 30 19 28 24 -3 4 -23 4 -23 3 2 -1 24 -6 28 -33 30 -30 3 -33 0
-32 -25z"/>
<path d="M5354 545 c-10 -24 22 -53 38 -36 11 10 10 11 -3 6 -10 -4 -20 -2
-24 4 -3 7 3 11 15 11 13 0 20 5 18 13 -7 19 -37 20 -44 2z m33 -1 c-3 -3 -12
-4 -19 -1 -8 3 -5 6 6 6 11 1 17 -2 13 -5z"/>
<path d="M5412 535 c0 -16 2 -22 5 -12 2 9 2 23 0 30 -3 6 -5 -1 -5 -18z"/>
<path d="M5443 535 c7 -13 14 -20 15 -14 5 14 -6 39 -17 39 -5 0 -4 -11 2 -25z"/>
<path d="M4690 521 c0 -6 4 -13 10 -16 6 -3 7 1 4 9 -7 18 -14 21 -14 7z"/>
<path d="M2205 490 c-8 -14 3 -30 21 -30 8 0 14 -5 14 -11 0 -6 -9 -9 -20 -6
-11 3 -20 1 -20 -4 0 -5 11 -9 25 -9 31 0 34 29 5 37 -11 3 -20 10 -20 15 0 6
9 8 20 5 11 -3 20 -1 20 4 0 12 -37 11 -45 -1z"/>
<path d="M2580 465 c0 -30 3 -35 24 -35 16 0 27 7 31 20 8 25 -10 50 -36 50
-15 0 -19 -7 -19 -35z m45 0 c0 -11 -8 -21 -17 -23 -14 -3 -18 3 -18 23 0 20
4 26 18 23 9 -2 17 -12 17 -23z"/>
<path d="M2867 483 c-2 -5 -1 -19 3 -33 l6 -25 6 28 c5 26 -5 47 -15 30z"/>
<path d="M3107 483 c-2 -5 -1 -19 4 -33 7 -23 7 -23 8 8 1 31 -3 40 -12 25z"/>
<path d="M2264 465 c-4 -9 -1 -22 6 -28 10 -9 11 -9 6 1 -5 8 0 12 14 12 13 0
20 5 18 13 -7 19 -37 20 -44 2z m33 -1 c-3 -3 -12 -4 -19 -1 -8 3 -5 6 6 6 11
1 17 -2 13 -5z"/>
<path d="M2321 453 c1 -22 2 -23 6 -8 3 11 10 23 17 27 7 5 5 8 -6 8 -13 0
-18 -7 -17 -27z"/>
<path d="M2366 460 c3 -14 8 -27 11 -30 6 -7 23 23 22 40 0 10 -3 8 -8 -5 -8
-19 -8 -19 -20 0 -11 18 -11 18 -5 -5z"/>
<path d="M2422 455 c0 -16 2 -22 5 -12 2 9 2 23 0 30 -3 6 -5 -1 -5 -18z"/>
<path d="M2440 455 c0 -14 4 -25 9 -25 5 0 7 9 4 19 -3 13 1 21 14 24 15 4 14
5 -4 6 -18 1 -23 -4 -23 -24z"/>
<path d="M2493 464 c-3 -8 0 -21 7 -27 10 -9 11 -9 6 1 -5 8 0 12 13 12 12 0
21 7 21 15 0 20 -39 19 -47 -1z m34 0 c-3 -3 -12 -4 -19 -1 -8 3 -5 6 6 6 11
1 17 -2 13 -5z"/>
<path d="M2650 455 c0 -14 5 -25 11 -25 5 0 8 4 4 9 -3 5 3 12 12 14 16 4 15
5 -2 7 l-20 1 20 9 c19 8 19 9 -2 9 -18 1 -23 -5 -23 -24z"/>
<path d="M2711 443 c0 -21 3 -32 6 -25 2 6 11 12 18 12 7 0 15 6 17 13 8 20
-2 37 -23 37 -15 0 -19 -7 -18 -37z m31 12 c0 -5 -5 -11 -11 -13 -6 -2 -11 4
-11 13 0 9 5 15 11 13 6 -2 11 -8 11 -13z"/>
<path d="M2785 470 c17 -7 17 -9 3 -9 -11 -1 -18 -8 -17 -18 0 -11 3 -13 6 -5
2 6 9 12 14 12 6 0 7 -4 4 -10 -3 -5 -1 -10 4 -10 6 0 11 11 11 25 0 19 -5 25
-22 24 -22 0 -22 -1 -3 -9z"/>
<path d="M2821 453 c1 -22 2 -23 6 -8 3 11 10 23 17 27 7 5 5 8 -6 8 -13 0
-18 -7 -17 -27z"/>
<path d="M2901 453 c2 -24 2 -25 6 -5 2 12 8 22 13 22 5 0 11 -10 13 -22 l4
-23 2 23 c0 12 5 22 10 22 5 0 12 -10 14 -22 4 -20 4 -19 6 5 1 25 -2 27 -34
27 -32 0 -35 -2 -34 -27z"/>
<path d="M2988 468 c-7 -17 1 -38 13 -38 6 0 7 5 4 10 -3 6 1 10 9 10 9 0 16
7 16 15 0 18 -36 20 -42 3z"/>
<path d="M3044 469 c-4 -7 0 -9 14 -5 16 5 21 2 25 -16 4 -20 4 -20 6 5 1 21
-4 27 -18 27 -11 0 -23 -5 -27 -11z"/>
</g>
</svg>
