<svg width="35" height="35" viewBox="0 0 35 35" fill="none" xmlns="http://www.w3.org/2000/svg">
<g id="north_FILL0_wght400_GRAD0_opsz24 1">
<path id="Vector" d="M17.5 32.0835C17.0868 32.0835 16.7404 31.9437 16.4609 31.6642C16.1814 31.3847 16.0416 31.0384 16.0416 30.6252V8.49495L10.3541 14.146C10.0868 14.4134 9.75258 14.5531 9.35154 14.5653C8.9505 14.5774 8.60415 14.4377 8.31248 14.146C8.04512 13.8786 7.91144 13.5384 7.91144 13.1252C7.91144 12.712 8.04512 12.3717 8.31248 12.1043L16.4791 3.93766C16.625 3.79183 16.783 3.68853 16.9531 3.62777C17.1232 3.567 17.3055 3.53662 17.5 3.53662C17.6944 3.53662 17.8767 3.567 18.0469 3.62777C18.217 3.68853 18.375 3.79183 18.5208 3.93766L26.6875 12.1043C26.9548 12.3717 27.0885 12.7059 27.0885 13.1069C27.0885 13.508 26.9548 13.8543 26.6875 14.146C26.3958 14.4377 26.0495 14.5835 25.6484 14.5835C25.2474 14.5835 24.901 14.4377 24.6094 14.146L18.9583 8.49495V30.6252C18.9583 31.0384 18.8186 31.3847 18.539 31.6642C18.2595 31.9437 17.9132 32.0835 17.5 32.0835Z" fill="white"/>
</g>
</svg>
